<?xml version="1.0" encoding="utf-8"?>
<!-- Generator: Adobe Illustrator 22.0.1, SVG Export Plug-In . SVG Version: 6.00 Build 0)  -->
<svg version="1.1" id="Capa_1" xmlns="http://www.w3.org/2000/svg" xmlns:xlink="http://www.w3.org/1999/xlink" x="0px" y="0px"
	 viewBox="0 0 507.4 225.7" style="enable-background:new 0 0 507.4 225.7;" xml:space="preserve">
<g>
	<path d="M497.8,78.8c-1.7-1.7-3.9-2.6-6.6-2.6H134.9v-64c0-3.8-1.8-6.6-5.4-8.3c-3.6-1.5-7-0.9-10,1.7L9.9,106.8
		C7.9,108.7,7,111,7,113.7c0,2.5,0.9,4.7,2.9,6.6l109.6,99.9c3,2.5,6.4,3,10,1.4c3.6-1.5,5.4-4.3,5.4-8.3v-64h356.3
		c2.7,0,4.9-0.9,6.6-2.6c1.7-1.7,2.6-3.9,2.6-6.6V85.4C500.4,82.7,499.5,80.5,497.8,78.8z"/>
</g>
</svg>
