<?xml version="1.0" encoding="utf-8"?>
<!-- Generator: Adobe Illustrator 22.0.1, SVG Export Plug-In . SVG Version: 6.00 Build 0)  -->
<svg version="1.1" id="Capa_1" xmlns="http://www.w3.org/2000/svg" xmlns:xlink="http://www.w3.org/1999/xlink" x="0px" y="0px"
	 viewBox="0 0 227.3 493.3" style="enable-background:new 0 0 227.3 493.3;" xml:space="preserve">
<g>
	<path d="M221,112.5L119.7,2.9c-1.9-1.9-4.2-2.9-6.9-2.9c-2.5,0-4.7,0.9-6.6,2.9L6.3,112.5c-2.5,3-3,6.4-1.4,10
		c1.5,3.6,4.3,5.4,8.3,5.4h64v356.3c0,2.7,0.9,4.9,2.6,6.6c1.7,1.7,3.9,2.6,6.6,2.6h54.8c2.7,0,4.9-0.9,6.6-2.6
		c1.7-1.7,2.6-3.9,2.6-6.6V127.9h64c3.8,0,6.6-1.8,8.3-5.4C224,118.9,223.5,115.5,221,112.5z"/>
</g>
</svg>
