<?xml version="1.0" encoding="utf-8"?>
<!-- Generator: Adobe Illustrator 22.0.1, SVG Export Plug-In . SVG Version: 6.00 Build 0)  -->
<svg version="1.1" id="Capa_1" xmlns="http://www.w3.org/2000/svg" xmlns:xlink="http://www.w3.org/1999/xlink" x="0px" y="0px"
	 viewBox="0 0 450.5 453.5" style="enable-background:new 0 0 450.5 453.5;" xml:space="preserve">
<g>
	<path d="M415.1,116.2c-19.6-33.6-46.2-60.2-79.8-79.8C301.7,16.8,265.1,7,225.3,7c-39.8,0-76.5,9.8-110.1,29.4
		C81.6,56,55,82.6,35.4,116.2C15.8,149.8,6,186.5,6,226.3c0,39.8,9.8,76.5,29.4,110.1c19.6,33.6,46.2,60.2,79.8,79.8
		c33.6,19.6,70.3,29.4,110.1,29.4s76.5-9.8,110.1-29.4c33.6-19.6,60.2-46.2,79.8-79.8c19.6-33.6,29.4-70.3,29.4-110.1
		C444.5,186.5,434.7,149.8,415.1,116.2z M367.4,192.9l-155,155c-3.6,3.6-8,5.4-13.1,5.4c-4.9,0-9.2-1.8-12.8-5.4L83.1,244.5
		c-3.4-3.4-5.1-7.7-5.1-12.8c0-5.3,1.7-9.7,5.1-13.1l26-25.7c3.6-3.6,7.9-5.4,12.8-5.4s9.2,1.8,12.9,5.4l64.5,64.5l116.5-116.2
		c3.6-3.6,7.9-5.4,12.8-5.4c4.9,0,9.2,1.8,12.8,5.4l26,25.7c3.4,3.4,5.1,7.8,5.1,13.1C372.6,185.2,370.9,189.4,367.4,192.9z"/>
</g>
</svg>
