<?xml version="1.0" encoding="utf-8"?>
<!-- Generator: Adobe Illustrator 22.0.1, SVG Export Plug-In . SVG Version: 6.00 Build 0)  -->
<svg version="1.1" id="Capa_1" xmlns="http://www.w3.org/2000/svg" xmlns:xlink="http://www.w3.org/1999/xlink" x="0px" y="0px"
	 viewBox="0 0 426.5 416.5" style="enable-background:new 0 0 426.5 416.5;" xml:space="preserve">
<style type="text/css">
	.st0{fill:#010002;}
</style>
<g>
	<path class="st0" d="M213.2,5.5L5.6,160.5V407h415.2V160.5L213.2,5.5z M155.8,116.1c6.1-11.1,14.5-19.5,25.1-25.1
		c10.6-5.6,22.7-8.4,36.5-8.4c11.6,0,21.9,2.3,30.9,6.7c9,4.5,15.9,10.9,20.7,19.2c4.7,8.3,7.1,17.4,7.1,27.2
		c0,11.7-3.6,22.3-10.9,31.8c-9.1,12-20.7,17.9-34.9,17.9c-3.8,0-6.7-0.6-8.6-2c-1.9-1.4-3.2-3.3-3.9-5.9
		c-5.3,5.3-11.6,7.9-18.7,7.9c-7.6,0-14-2.6-19-7.9c-5-5.3-7.6-12.3-7.6-21c0-10.9,3-20.7,9.1-29.6c7.4-10.9,16.8-16.3,28.3-16.3
		c8.2,0,14.3,3.1,18.1,9.4l1.7-7.7h18.3L237.7,162c-0.7,3.2-1,5.1-1,6.1c0,1.2,0.3,2,0.8,2.6c0.5,0.6,1.2,0.9,1.9,0.9
		c2.3,0,5.1-1.3,8.6-4c4.7-3.5,8.5-8.2,11.4-14.1c2.9-5.9,4.4-12,4.4-18.3c0-11.3-4.1-20.8-12.3-28.4c-8.2-7.6-19.7-11.4-34.3-11.4
		c-12.5,0-23.1,2.5-31.7,7.7c-8.7,5-15.2,12.2-19.7,21.5c-4.4,9.2-6.6,18.8-6.6,28.8c0,9.7,2.5,18.5,7.4,26.5
		c4.9,8,11.8,13.8,20.7,17.5c8.9,3.6,19,5.5,30.4,5.5c10.9,0,20.4-1.5,28.4-4.6c7.9-3.1,14.3-7.6,19.1-13.8h14.7
		c-4.6,9.4-11.6,16.7-21.1,22c-10.9,6.1-24.2,9.1-39.9,9.1c-15.2,0-28.3-2.5-39.4-7.7c-11.1-5.1-19.3-12.7-24.7-22.7
		c-5.4-10-8-20.9-8-32.7C146.7,139.3,149.7,127.3,155.8,116.1z M20.2,165.4l153.2,102.7L20.2,386.7V165.4z M31.9,394.6l181.4-140.4
		l181.3,140.4H31.9z M406.2,386.7L253,268.1l153.2-102.7L406.2,386.7L406.2,386.7z M220.7,127.4c2.4,2.8,3.6,6.8,3.6,12
		c0,4.7-0.9,9.7-2.7,15c-1.7,5.4-3.9,9.5-6.3,12.3c-1.7,2-3.4,3.4-5.2,4.3c-2.3,1.3-4.7,1.9-7.4,1.9c-3.5,0-6.4-1.4-8.8-4.1
		c-2.3-2.8-3.5-7-3.5-12.9c0-4.4,0.8-9.4,2.5-15.1c1.7-5.7,4.2-10,7.6-13.1c3.4-3.1,7-4.6,11-4.6
		C215.3,123.2,218.3,124.6,220.7,127.4z"/>
</g>
</svg>
