<?xml version="1.0" encoding="utf-8"?>
<!-- Generator: Adobe Illustrator 22.0.1, SVG Export Plug-In . SVG Version: 6.00 Build 0)  -->
<svg version="1.1" id="Слой_1" xmlns="http://www.w3.org/2000/svg" xmlns:xlink="http://www.w3.org/1999/xlink" x="0px" y="0px"
	 viewBox="0 0 621.6 567.3" style="enable-background:new 0 0 621.6 567.3;" xml:space="preserve">
<g id="Слой_x0020_1">
	<g id="_538047512">
		<path  d="M56.7,116.5L478.1,1c15.8-4.5,30.2-1.4,40.6,7.2l0,0l0,0c10.4,8.1,16.7,22.1,16.7,38.8v154.7h-41.5v-143
			c0-5-1.8-8.6-4.5-10.8h-0.5c-2.7-2.3-6.3-3.2-10.8-1.8L56.7,161.6c-4.5,1.4-8.6,4.1-11.3,8.1l0,0c-2.7,3.6-4.5,8.6-4.5,13.1v320.3
			c0,4.5,1.8,8.1,4.5,10.4l0,0c2.7,2.3,6.8,3.2,11.3,2.3l168.7-46.5v45.1L56.7,560.9c-15.8,4.1-30.2,1.4-40.6-7.2l0,0h-0.5
			C5.3,545.1-1,531.5-1,514.4V194.6c0-17.1,6.3-34.3,16.7-48.7h0.5l0,0C26.5,131.9,41,121,56.7,116.5z"/>
		<path  d="M470,446.7c-27.5,0-49.6-22.6-49.6-49.6v-81.7c0-27.5,22.1-49.6,49.6-49.6h128.6c0.5,0,1.4,0,2.3,0v-81.2
			c0-21.2-17.1-38.3-38.3-38.3H36.9C16.1,146.3-1,163.4-1,184.6v343.3c0,21.2,17.1,38.3,37.9,38.3h525.5c21.2,0,38.3-17.1,38.3-38.3
			v-81.7c-0.9,0-1.8,0.5-2.3,0.5H470z"/>
		<path  d="M598.5,292.9H470c-12.6,0-22.6,9.9-22.6,22.6v81.7c0,12.2,9.9,22.6,22.6,22.6h128.6
			c12.2,0,22.1-10.4,22.1-22.6v-81.7C620.6,302.8,610.7,292.9,598.5,292.9z M514.2,388.5c-18,0-32-14.4-32-32.5c0-17.6,14-32,32-32
			c17.6,0,32,14.4,32,32C546.2,374.1,531.8,388.5,514.2,388.5z"/>
	</g>
</g>
</svg>
