<?xml version="1.0" encoding="utf-8"?>
<!-- Generator: Adobe Illustrator 22.0.1, SVG Export Plug-In . SVG Version: 6.00 Build 0)  -->
<svg version="1.1" id="Слой_1" xmlns="http://www.w3.org/2000/svg" xmlns:xlink="http://www.w3.org/1999/xlink" x="0px" y="0px"
	 viewBox="0 0 756.1 595.3" style="enable-background:new 0 0 756.1 595.3;" xml:space="preserve">
<style type="text/css">
	.st0{fill:#919293;}
</style>
<g id="Слой_x0020_1">
	<g id="_324361968">
		<path class="st0" d="M378.9,120.2L112.5,340.1c0,0.5,0,0.5-0.5,1.5c0,0.5,0,1,0,1v223c0,7.7,2.6,14.8,8.7,20.5
			c5.6,6.1,12.8,9.2,21,9.2h178V416.8h118.6v178.5h178c8.2,0,15.3-3.1,21-9.2c6.1-5.6,8.7-12.8,8.7-20.5v-223c0-1,0-2-0.5-2.6
			L378.9,120.2z"/>
		<path class="st0" d="M747.7,290l-101.8-84.4V16.4c0-4.1-1-7.7-4.1-10.7c-2.6-2.6-6.1-4.1-10.7-4.1h-89c-4.1,0-7.7,1.5-10.7,4.1
			c-2.6,3.1-4.1,6.6-4.1,10.7v90.5l-113-94.6C404.5,4.1,392.8,0,378.9,0c-13.8,0-25.6,4.1-35.3,12.3L10.2,290
			c-3.1,2.6-4.6,5.6-5.1,10.2c0,4.1,1,7.7,3.6,10.7l28.6,34.3c2.6,2.6,5.6,4.6,9.7,5.1c3.6,0.5,7.2-1,11.3-3.1l320.7-268l320.7,268
			c2.6,2,6.1,3.1,9.7,3.1h1.5c4.1-0.5,7.2-2.6,9.7-5.1l28.6-34.3c2.6-3.1,3.6-6.6,3.6-10.7C752.3,295.6,750.7,292.5,747.7,290z"/>
	</g>
</g>
</svg>
