<?xml version="1.0" encoding="utf-8"?>
<!-- Generator: Adobe Illustrator 22.0.1, SVG Export Plug-In . SVG Version: 6.00 Build 0)  -->
<svg version="1.1" id="Слой_1" xmlns="http://www.w3.org/2000/svg" xmlns:xlink="http://www.w3.org/1999/xlink" x="0px" y="0px"
	 viewBox="0 0 635 615.3" style="enable-background:new 0 0 635 615.3;" xml:space="preserve">
<g id="Слой_x0020_1">
	<g id="_536754184">
		<path  d="M299.5,300c4.5-4.9,11.1-7.8,18.6-7.8c7,0,13.6,2.9,18.6,7.8l0,0c4.9,4.5,7.8,11.1,7.8,18.6V387l57.3,37.1
			l0,0l0.8,0.4l0.8,0.4l0.4,0.4c4.9,4.1,8.2,9.5,9.5,15.3l0,0c1.2,6.6,0,13.6-3.7,19.8l0,0l0,0l-0.4,0.8l-0.8,0.8l-0.4,0.4
			c-2.1,2.9-4.9,4.9-7.8,6.6h-0.4c-3.7,2.1-8.2,3.3-12.4,3.3c-2.5,0-4.9-0.4-7.4-1.2l0,0c-2.5-0.8-4.9-1.6-7-3.3l0,0l-54.8-35.5
			l-54.8,35.5l0,0c-2.1,1.6-4.5,2.5-7,3.3l0,0c-2.5,0.8-4.9,1.2-7.4,1.2c-4.5,0-8.7-1.2-12.8-3.3c-3.7-2.1-7-4.9-9.5-8.7l0,0l0,0
			l0,0v-0.4l0,0c-3.7-5.8-4.9-12.8-3.7-19.4c1.6-6.6,5.4-12.4,11.5-16.5l0,0l0,0l0,0l0,0l0,0l57.3-37.1v-68.4
			C291.7,311.1,294.6,304.5,299.5,300L299.5,300z"/>
		<path  d="M374.1,127.3h-0.4l-13.6-4.5c-4.5-1.2-9.1,0-12,2.9l-30.1,27.2L288,125.6c-2.9-2.9-7.4-4.1-12-2.9l-14,4.5
			c-21,7-35,26.4-35,48.6v76.7c0,7,5.8,12.4,12.4,12.4h157.5c6.6,0,12.4-5.4,12.4-12.4v-76.7C409.2,153.6,395.2,134.3,374.1,127.3z
			 M266.5,62.5c0,28.9,23.1,51.9,51.5,51.9s51.5-23.1,51.5-51.9c0-28.4-23.1-51.5-51.5-51.5S266.5,34.1,266.5,62.5z"/>
		<g>
			<path  d="M152.8,468.6L152.8,468.6l-14-4.5c-4.1-1.2-8.7,0-12,2.9l-29.7,26.8L67,466.9c-3.3-2.9-7.8-4.1-12-2.9
				l-14,4.5c-21,7-35,26.4-35,48.6v76.7c0,7,5.4,12.4,12.4,12.4h157.1c7,0,12.4-5.4,12.4-12.4v-76.7
				C187.8,495,173.8,475.6,152.8,468.6z M45.2,403.9c0,28.4,23.1,51.5,51.9,51.5c28.4,0,51.5-23.1,51.5-51.5s-23.1-51.5-51.5-51.5
				C68.2,352.3,45.2,375.4,45.2,403.9z"/>
			<path  d="M595.1,468.6L595.1,468.6l-14-4.5c-4.1-1.2-8.7,0-12,2.9L539,493.7l-29.7-26.8c-3.3-2.9-7.8-4.1-12-2.9
				l-14,4.5c-21,7-35,26.4-35,48.6v76.7c0,7,5.4,12.4,12.4,12.4h157.1c7,0,12.4-5.4,12.4-12.4v-76.7
				C630.1,495,616.1,475.6,595.1,468.6z M487.5,403.9c0,28.4,23.1,51.5,51.5,51.5c28.9,0,51.9-23.1,51.9-51.5s-23.1-51.5-51.9-51.5
				C510.6,352.3,487.5,375.4,487.5,403.9z"/>
		</g>
	</g>
</g>
</svg>
