<?xml version="1.0" encoding="utf-8"?>
<!-- Generator: Adobe Illustrator 22.0.1, SVG Export Plug-In . SVG Version: 6.00 Build 0)  -->
<svg version="1.1" id="Слой_1" xmlns="http://www.w3.org/2000/svg" xmlns:xlink="http://www.w3.org/1999/xlink" x="0px" y="0px"
	 viewBox="0 0 537.9 549.3" style="enable-background:new 0 0 537.9 549.3;" xml:space="preserve">
<g id="Слой_x0020_1">
	<path  d="M529.7,262c0-39.8-21.9-74.7-54.4-93C455.4,76.9,366.4,7,259.2,7C146.3,7,52.9,85,40.7,185.3
		C20.8,204.8,8.2,232,8.2,262c0,58.5,47.5,106,106.4,106c4.1,0,7.3-3.2,7.3-7.3V163c0-4.1-3.2-7.3-7.3-7.3c-5.3,0-10.2,0.4-15,0.8
		c24-57.7,86.5-99.5,159.6-99.5c73.5,0,136.5,41.8,160,99.9c-2,1.2-3.2,3.7-3.2,6.1v197.8c0,4.1,3.2,7.3,7.3,7.3c2.4,0,4.9,0,7.3,0
		c-16.2,51.2-60.9,92.2-117.8,108c-6.9-11-19.1-18.3-32.9-18.3h-41c-21.1,0-38.6,17.1-38.6,38.6v7.3c0,21.5,17.5,38.6,38.6,38.6h41
		c19.5,0,35.3-14.2,38.2-32.9c76.4-20.3,135.2-78.4,149.5-150.7C504.1,341.6,529.7,304.7,529.7,262z"/>
</g>
</svg>
