<?xml version="1.0" encoding="utf-8"?>
<!-- Generator: Adobe Illustrator 22.0.1, SVG Export Plug-In . SVG Version: 6.00 Build 0)  -->
<svg version="1.1" id="Слой_1" xmlns="http://www.w3.org/2000/svg" xmlns:xlink="http://www.w3.org/1999/xlink" x="0px" y="0px"
	 viewBox="0 0 558.9 562.3" style="enable-background:new 0 0 558.9 562.3;" xml:space="preserve">
<path  d="M526.8,225.3l-38.5-6.4c-3.9-12.8-9-25.3-15.4-37.2l22.7-31.2c9.4-13.7,8.1-32.1-3.4-43.7l-34.2-33.8
	c-6.4-6.4-14.6-9.8-23.5-9.8c-7.3,0-14.1,2.1-19.7,6.4L383,91.7c-12.4-6.4-25.3-11.6-38.5-15.8L338,38.2C335.4,22,321.3,10,305.1,10
	h-47.9c-16.7,0-30.8,12-33.4,28.2l-6.8,38.5c-12.4,4.3-24.8,9.4-36.8,15.8l-31.2-22.7c-5.6-3.9-12.4-6.4-19.7-6.4
	c-9,0-17.5,3.9-24,10.3l-33.8,33.8c-11.6,11.6-13.3,30-3.9,43.2l23.1,32.1c-6.4,12-11.6,24.4-15.4,37.2l-37.7,6.4
	C21.3,229.1,9.3,243.3,9.3,260v47.9c0,16.3,12,30.4,28.2,33l38.5,6.8c4.3,12.8,9.4,25.3,15.8,36.8l-22.7,31.2
	c-9.4,13.7-8.1,31.7,3.9,43.7l33.8,33.8c6.4,6.4,15,9.8,24,9.8c6.8,0,13.7-2.1,19.3-6.4l32.1-22.7c11.6,6,23.5,11.1,36,15l6.4,38.1
	c2.6,16.3,16.7,28.2,33.4,28.2h47.9c16.7,0,30.4-12,33.4-28.2l6.4-38.1c12.8-4.3,25.3-9.4,37.2-15.4l31.2,22.7c6,3.9,12.8,6,19.7,6
	c9,0,17.5-3.4,24-9.8l33.8-33.8c11.6-11.6,13.3-30,3.4-43.7l-22.3-31.7c6-12,11.6-24.4,15.4-36.8l38.1-6.4
	c16.3-3,28.2-16.7,28.2-33.4v-47.9C554.6,242,543,228.3,526.8,225.3z M281.9,164.9c-65.1,0-117.7,52.6-117.7,117.7
	s52.6,117.7,117.7,117.7s117.7-52.6,117.7-117.7S347,164.9,281.9,164.9z"/>
</svg>
