<?xml version="1.0" encoding="utf-8"?>
<!-- Generator: Adobe Illustrator 22.0.1, SVG Export Plug-In . SVG Version: 6.00 Build 0)  -->
<svg version="1.1" id="Слой_1" xmlns="http://www.w3.org/2000/svg" xmlns:xlink="http://www.w3.org/1999/xlink" x="0px" y="0px"
	 viewBox="0 0 531.9 533.3" style="enable-background:new 0 0 531.9 533.3;" xml:space="preserve">
<style type="text/css">
	.st0{fill:#919293;}
</style>
<g id="Слой_x0020_1">
	<g id="_539023024">
		<path class="st0" d="M383.5,134.1h-305c-39.5,0-71.8,32.2-71.8,71.8v163.7c0,39.5,32.2,71.8,71.8,71.8h208.7l80.9,80.9
			c2.6,2.6,6.2,4,9.9,4c2.2,0,4-0.4,5.5-1.1c5.5-2.2,9.2-7.3,9.2-13.2v-71.4c35.2-4.4,62.6-34.4,62.6-71V205.8
			C455.3,166.3,423,134.1,383.5,134.1z M356.4,235.9H105.5c-8.1,0-14.3,6.2-14.3,14.3c0,7.7,6.2,14.3,14.3,14.3h250.8
			c7.7,0,14.3-6.6,14.3-14.3C370.7,242.1,364.1,235.9,356.4,235.9z M356.4,316.1H105.5c-8.1,0-14.3,6.2-14.3,14.3
			c0,7.7,6.2,14.3,14.3,14.3h250.8c7.7,0,14.3-6.6,14.3-14.3C370.7,322.3,364.1,316.1,356.4,316.1z"/>
		<path class="st0" d="M148.4,7h305c39.5,0,71.8,31.9,71.8,71.4v163.7c0,39.2-31.1,71-69.9,71.8v-28.6c22.7-0.7,41.4-19.8,41.4-43.2
			V78.4c0-23.4-19.4-42.8-43.2-42.8h-305c-23.8,0-42.8,19.4-42.8,42.8v55.7H78.4h-1.8V78.4C76.6,38.9,108.8,7,148.4,7z"/>
	</g>
</g>
</svg>
