<?xml version="1.0" encoding="utf-8"?>
<!-- Generator: Adobe Illustrator 22.0.1, SVG Export Plug-In . SVG Version: 6.00 Build 0)  -->
<svg version="1.1" id="Слой_1" xmlns="http://www.w3.org/2000/svg" xmlns:xlink="http://www.w3.org/1999/xlink" x="0px" y="0px"
	 viewBox="0 0 635.9 520.3" style="enable-background:new 0 0 635.9 520.3;" xml:space="preserve">
<g id="Слой_x0020_1">
	<path  d="M550.8,86.9V9H7.2v427.4c0,0,0,77.9,77.5,77.9h485.9c0,0,58.1-1.1,58.1-77.9V86.9H550.8z M84.7,475.1
		c-38.8,0-38.8-38.8-38.8-38.8V48.1h466.1v388.3c0,17.9,5.7,30.4,13.3,38.8H84.7z M84.7,361.9h388.6v38.8H84.7V361.9z M298.6,274.6
		h136v38.8h-136V274.6z M298.6,196.7h174.8v39.1H298.6V196.7z M298.6,119.2h174.8v38.8H298.6V119.2z M84.7,119.2h174.8v194.1H84.7
		V119.2z"/>
</g>
</svg>
