<?xml version="1.0" encoding="utf-8"?>
<!-- Generator: Adobe Illustrator 22.0.1, SVG Export Plug-In . SVG Version: 6.00 Build 0)  -->
<svg version="1.1" id="Слой_1" xmlns="http://www.w3.org/2000/svg" xmlns:xlink="http://www.w3.org/1999/xlink" x="0px" y="0px"
	 viewBox="0 0 580.9 502.3" style="enable-background:new 0 0 580.9 502.3;" xml:space="preserve">
<style type="text/css">
	.st0{fill:#919293;}
</style>
<g id="Слой_x0020_1">
	<g id="_538049696">
		<path class="st0" d="M571.4,378.9l-107.2-46.6l-154.5,62c-5.9,2.2-12.1,3.3-18.7,3.3c-6.6,0-12.8-1.1-18.7-3.3l-154.5-62
			L10.6,378.9c-2.2,1.1-3.7,2.2-3.7,3.7v0.4c0,1.1,1.5,2.6,3.7,3.3l271.6,108.7c4.8,1.8,12.8,1.8,17.6,0l271.6-108.7
			C576.2,384.4,576.2,381.1,571.4,378.9z"/>
		<path class="st0" d="M571.4,253.7l-107.5-46.6l-154.2,61.7c-5.9,2.2-12.1,3.3-18.7,3.3c-6.6,0-12.8-1.1-18.7-3.3l-154.5-61.7
			L10.6,253.7c-2.2,0.7-3.7,2.2-3.7,3.3v0.4c0,1.5,1.5,2.6,3.7,3.7l271.6,108.3c4.8,2.2,12.8,2.2,17.6,0l271.6-108.3
			C576.2,258.9,576.2,255.6,571.4,253.7z"/>
		<path class="st0" d="M10.6,135.5l141.7,56.5l129.9,52.1c4.8,1.8,12.8,1.8,17.6,0l129.9-52.1l141.7-56.5c4.8-1.8,4.8-5.1,0-7.3
			L299.8,10.4c-4.8-1.8-12.8-1.8-17.6,0L10.6,128.2c-2.2,1.1-3.7,2.2-3.7,3.7v0.4C6.9,133.3,8.3,134.8,10.6,135.5z"/>
	</g>
</g>
</svg>
