<?xml version="1.0" encoding="utf-8"?>
<!-- Generator: Adobe Illustrator 22.0.1, SVG Export Plug-In . SVG Version: 6.00 Build 0)  -->
<svg version="1.1" id="Слой_1" xmlns="http://www.w3.org/2000/svg" xmlns:xlink="http://www.w3.org/1999/xlink" x="0px" y="0px"
	 viewBox="0 0 635.9 577.3" style="enable-background:new 0 0 635.9 577.3;" xml:space="preserve">
<style type="text/css">
	.st0{fill:#919293;}
</style>
<g id="Слой_x0020_1">
	<path class="st0" d="M445.5,491.9l-9.1,54.7c-1.7,7.5,1.7,14.9,7.9,19.5c6.2,4.6,14.1,5,20.7,1.7l49.3-25.7l49.3,25.7
		c2.9,1.2,6.2,2.1,9.5,2.1c3.7,0,7.9-1.2,11.6-3.7c6.2-4.6,9.1-12,7.9-19.5l-9.1-54.7l39.8-38.9c5.4-5.4,7-13.3,5-20.3
		c-2.5-7.5-8.7-12.8-16.2-13.7l-55.1-8.3l-24.4-49.7c-3.7-6.6-10.4-11.2-18.2-11.2c-7.5,0-14.5,4.6-17.8,11.2l-24.8,49.7l-54.7,8.3
		c-7.5,0.8-13.7,6.2-16.2,13.7c-2.5,7-0.4,14.9,5,20.3L445.5,491.9z M206.1,230.6c-2.1-2.5-5-3.7-8.3-3.7h-23.6
		c-2.9,0-6.2,1.2-8.3,3.7c-3.3,3.7-3.7,8.7-1.7,12.8l12.8,19.1l-5.8,49.7l11.6,31.1c0.8,2.9,5.4,2.9,6.6,0l11.6-31.1l-6.2-49.7
		l12.8-19.1C210.2,239.3,209.4,234.3,206.1,230.6z M41.3,476.2h292c19.1,0,34.4-15.3,34.4-34.4V314.7c0-35.2-22.8-66.7-56.3-77.4
		l0,0l-48.9-8.3c-4.1-1.2-8.7,1.2-10.4,5.4l-55.5,152.4c-3.3,8.7-15.7,8.7-18.6,0L122,234.3c-0.8-3.7-4.1-5.8-7.5-5.8
		c-0.8,0-51.4,8.7-51.4,8.7c-34,11.2-56.3,42.7-56.3,77.9v126.7C6.9,460.9,22.2,476.2,41.3,476.2z M187.1,192.5
		c51.4,0,92.8-41.8,92.8-92.8S238.4,7.4,187.1,7.4c-50.9,0-92.4,41.4-92.4,92.4S136.1,192.5,187.1,192.5z"/>
</g>
</svg>
