<?xml version="1.0" encoding="utf-8"?>
<!-- Generator: Adobe Illustrator 22.0.1, SVG Export Plug-In . SVG Version: 6.00 Build 0)  -->
<svg version="1.1" id="Слой_1" xmlns="http://www.w3.org/2000/svg" xmlns:xlink="http://www.w3.org/1999/xlink" x="0px" y="0px"
	 viewBox="0 0 667.9 565.3" style="enable-background:new 0 0 667.9 565.3;" xml:space="preserve">
<g id="Слой_x0020_1">
	<g id="_324950824">
		<path  d="M251.7,91.3V64h164.6v27.3H251.7z M607.6,91.3H470.8V64c0-30.6-24.4-55-54.5-55H251.7
			c-30.1,0-54.5,24.4-54.5,55v27.3H60.3c-30.1,0-54.5,24.4-54.5,54.5v82.3c0,30.1,24.4,54.5,54.5,54.5h219.1v-13.9
			c0-7.2,5.7-13.4,13.4-13.4h82.3c7.7,0,13.4,6.2,13.4,13.4v13.9h219.1c30.1,0,54.5-24.4,54.5-54.5v-82.3
			C662.1,115.7,637.7,91.3,607.6,91.3z"/>
		<path  d="M654.5,297.5c-4.3-2.4-10-1.9-14.4,1.4c-9.6,7.2-21,11-32.5,11H388.5V351c0,7.7-5.7,13.9-13.4,13.9h-82.3
			c-7.7,0-13.4-6.2-13.4-13.9v-41.1H60.3c-11.5,0-23-3.8-32.5-11c-4.3-3.3-10-3.8-14.4-1.4c-4.8,2.4-7.7,7.2-7.7,12v191.8
			c0,30.6,24.4,55,54.5,55h547.3c30.1,0,54.5-24.4,54.5-55V309.4C662.1,304.6,659.2,299.9,654.5,297.5z"/>
	</g>
</g>
</svg>
