<?xml version="1.0" encoding="utf-8"?>
<!-- Generator: Adobe Illustrator 22.0.1, SVG Export Plug-In . SVG Version: 6.00 Build 0)  -->
<svg version="1.1" id="Слой_1" xmlns="http://www.w3.org/2000/svg" xmlns:xlink="http://www.w3.org/1999/xlink" x="0px" y="0px"
	 viewBox="0 0 944 938" style="enable-background:new 0 0 944 938;" xml:space="preserve">
<g id="surface1">
	<path d="M202.4,185.7h-83.9c-43,0.1-77.8,34.9-77.9,77.9c0.1,8.6,1.6,17.1,4.5,25.1L202.4,185.7z"/>
	<path d="M819.2,341.4V185.7h-68.9l49.2,155.7H819.2z"/>
	<path d="M118.6,341.4h16.6l460.7-170.3c5.7-2.1,12.1-0.7,16.4,3.6l9.1,9.1c11.1,11.2,26.3,17.5,42.1,17.4c6.7,0,12.7,4.3,14.8,10.6
		l43.2,129.5h45.4L684.8,81.6L63.3,318.3C77.9,333.1,97.8,341.4,118.6,341.4z"/>
	<path d="M599.4,205.8l-2.1-2.1L224.9,341.4h463.7l-36.6-109.7C632.1,229.2,613.6,220.1,599.4,205.8z"/>
	<path d="M532.5,106.2l-44.9-70.2L169.4,244.6L532.5,106.2z"/>
	<path d="M539,621.7c0.1-60.2,48.8-108.9,109-109h171.3V372.5H140.7l-1.7,0.6l-0.2-0.6h-20.3c-3.7,0-7.5-0.2-11.2-0.6
		c-1.3-0.1-2.6-0.4-3.9-0.6c-2.3-0.3-4.7-0.6-7-1.1c-1.6-0.3-3-0.8-4.5-1.2c-2-0.5-4-0.9-6-1.6c-1.6-0.5-3.1-1.2-4.7-1.7
		c-1.6-0.6-3.6-1.2-5.3-2c-1.7-0.7-3.1-1.6-4.8-2.3c-1.6-0.8-3.2-1.6-4.8-2.4c-1.5-0.8-3.1-1.9-4.7-2.8c-1.6-0.9-3-1.8-4.4-2.7
		c-1.4-1-2.9-2.2-4.3-3.2c-1.4-1.1-2.8-2-4.1-3.1c-1.3-1.1-2.7-2.4-4-3.6c-1.3-1.2-2.5-2.3-3.8-3.5c-0.1-0.2-0.3-0.3-0.5-0.4v484.3
		c0.1,43,34.9,77.8,77.9,77.8h700.7V730.7H648C587.8,730.6,539,681.8,539,621.7z M719.1,419.2h53.4v31.1h-53.4V419.2z M594.6,419.2
		h62.3v31.1h-62.3V419.2z M158.6,855.2h-40.1c-8.6,0-17.3-1.1-25.7-3.1l7.3-30.2c6,1.4,12.2,2.2,18.4,2.2h40L158.6,855.2z
		 M158.6,450.4h-40.1c-8.6,0-17.3-1.1-25.7-3.1l7.3-30.2c6,1.4,12.2,2.2,18.4,2.2h40L158.6,450.4z M283.2,855.2h-62.3v-31.1h62.3
		V855.2z M283.2,450.4h-62.3v-31.1h62.3V450.4z M407.7,855.2h-62.3v-31.1h62.3V855.2z M407.7,450.4h-62.3v-31.1h62.3V450.4z
		 M532.3,855.2H470v-31.1h62.3V855.2z M532.3,450.4H470v-31.1h62.3V450.4z M719.1,824.1h53.4v31.1h-53.4V824.1z M656.9,855.2h-62.3
		v-31.1h62.3V855.2z"/>
	<path d="M912.7,481.5c0-17.2-13.9-31.1-31.1-31.1h-31.1v62.3h31.1C898.7,512.7,912.7,498.7,912.7,481.5z"/>
	<path d="M905.6,538.9c-3.3,1.4-6.8,2.4-10.3,3.2c-0.9,0.2-1.7,0.4-2.6,0.5c-3.7,0.7-7.4,1.1-11.2,1.1H648
		c-43,0-77.9,34.9-77.9,77.8c0,43,34.9,77.9,77.9,77.9h233.5c17.2,0,31.1-13.9,31.1-31.1V535.5c-2.1,1.2-4.3,2.3-6.5,3.2
		L905.6,538.9z M648,668.4c-25.8,0-46.7-20.9-46.7-46.7c0-25.8,20.9-46.7,46.7-46.7c25.8,0,46.7,20.9,46.7,46.7
		C694.7,647.5,673.8,668.4,648,668.4z"/>
	<path d="M663.5,621.7c0,8.6-7,15.6-15.6,15.6c-8.6,0-15.6-7-15.6-15.6c0-8.6,7-15.6,15.6-15.6C656.6,606.1,663.5,613.1,663.5,621.7
		z"/>
</g>
</svg>
