<?xml version="1.0" encoding="utf-8"?>
<!-- Generator: Adobe Illustrator 22.0.1, SVG Export Plug-In . SVG Version: 6.00 Build 0)  -->
<svg version="1.1" id="Слой_1" xmlns="http://www.w3.org/2000/svg" xmlns:xlink="http://www.w3.org/1999/xlink" x="0px" y="0px"
	 viewBox="0 0 848.5 399" style="enable-background:new 0 0 848.5 399;" xml:space="preserve">
<style type="text/css">
	.st0{fill:url(#SVGID_1_);}
	.st1{fill:#2B2A29;}
	.st2{fill:#BD1D4D;}
</style>
<g id="Слой_x0020_1">
	<g id="_313452240">
		
			<linearGradient id="SVGID_1_" gradientUnits="userSpaceOnUse" x1="2930.4082" y1="25471.8203" x2="2930.4082" y2="23820.5508" gradientTransform="matrix(2.834646e-02 0 0 2.834646e-02 -58.6909 -674.2283)">
			<stop  offset="0" style="stop-color:#D71D4D"/>
			<stop  offset="1" style="stop-color:#6F1D3F"/>
		</linearGradient>
		<path class="st0" d="M24.4,1c-0.3,0-0.7,0-1.1,0l0,0C18.7,1,14.5,1.8,11,3.4l0,0c-3.9,1.7-6.6,4.3-7.9,7.5l0,0
			c-1.4,3.3-2.2,8.4-2,13.5l0,0c-0.1,5.2,0.7,10.2,2,13.5l0,0c1.3,3.2,4.1,5.7,7.9,7.5l0,0c3.5,1.6,7.7,2.4,12.3,2.4l0,0l0,0
			c0.3,0,0.7,0,1.1,0l0,0c0.4,0,0.7,0,1.1,0l0,0c4.6,0,8.8-0.8,12.3-2.4l0,0c3.8-1.7,6.6-4.3,7.9-7.5l0,0c1.4-3.3,2.2-8.4,2.1-13.5
			l0,0c0.1-5.2-0.7-10.2-2.1-13.5l0,0c-1.3-3.2-4.1-5.7-7.9-7.5l0,0C34.2,1.8,30,1,25.4,1l0,0C25.1,1,24.7,1,24.4,1z M7.9,21.8
			c-0.4-0.2-0.6-0.4-0.8-0.7l0,0C7.1,21,7,20.9,7,20.7l0,0c0-0.1,0-0.3,0.1-0.4l0,0c0.1-0.2,0.3-0.4,0.5-0.5l0,0l14.7-7.7
			c0.4-0.2,0.9-0.3,1.4-0.3l0,0c0.5,0,1.1,0.2,1.5,0.4l0,0l14.3,7.5c1.5,0.8,1.8,3.5,0.2,4.4l0,0v-1c0.2-0.2,0.3-0.4,0.3-0.6l0,0
			c0.1-0.6-0.1-0.8-0.5-0.5l0,0L25,29.4c-0.4,0.2-0.9,0.3-1.4,0.3l0,0c-0.5,0-1-0.2-1.5-0.4l0,0l-4-2.1l5-2.9c1.7-1,1.6-3-0.1-3.9
			l0,0c-1.4-0.8-3.4-0.8-4.8,0l0,0L12,24L7.9,21.8z M18.9,21.2c1-0.6,2.7-0.6,3.8,0l0,0c1.1,0.6,1.1,1.6,0.1,2.2l0,0l-5.2,3.1
			c-0.3,0.2-0.4,0.2-0.6,0.5l0,0c-0.3,0.3-0.4,0.7-0.4,1.2l0,0v0.1l0,0v0v0c0,0.4,0.2,0.6,0.5,0.8l0,0l0,0c0,0,0.2,0.1,0.3,0.2l0,0
			L17,29.3c-0.2,0.1-0.6,0.1-0.8,0l0,0c-0.9-0.5-1.9-1-2.8-1.4l0,0c-0.6-0.3-1-1-1-1.7l0,0v0c0-0.5,0.2-1.1,0.6-1.4l0,0
			c0.1-0.1,0.2-0.1,0.3-0.2l0,0c0,0,0,0,0,0l0,0l4.2-2.5l0,0L18.9,21.2z M7.9,24.1c-0.4-0.2-0.6-0.4-0.8-0.7l0,0
			C7.1,23.3,7,23.1,7,23l0,0c0-0.1,0-0.3,0.1-0.4l0,0c0.1-0.2,0.2-0.3,0.4-0.4l0,0c0,0,0.1,0,0.1,0.1l0,0l0.7,0.4L8,22.8
			c-0.1,0-0.2,0.1-0.2,0.1l0,0v0l0,0c0,0,0,0,0,0.1l0,0c0,0.1,0.2,0.2,0.4,0.3l0,0l3.8,2c0,0.2-0.1,0.4-0.1,0.7l0,0v0
			c0,0,0,0.1,0,0.2l0,0L7.9,24.1z M38.8,22.8c0-0.2,0.1-0.4,0.3-0.4l0,0c0.2,0,0.3,0.1,0.3,0.3l0,0v4.8c-0.2,0-0.3-0.1-0.5-0.1l0,0
			c0,0-0.1,0-0.2,0l0,0L38.8,22.8L38.8,22.8z M24.7,31l13.6-7.1v1c-4.4,2.3-8.8,4.5-13.3,6.9l0,0c-0.4,0.2-0.9,0.3-1.4,0.3l0,0
			c-0.5,0-1-0.2-1.5-0.4l0,0l-2.3-1.2l-2.3-1.2c-0.7-0.3-0.8-0.4-0.8-1.2l0,0c0,0,0,0,0-0.1l0,0l5.8,2.9c0.3,0.2,0.7,0.3,1.1,0.3
			l0,0c0,0,0.1,0,0.2,0l0,0C24.2,31.1,24.5,31.1,24.7,31z M37.8,28.9c0-0.8,0.6-1.4,1.4-1.4l0,0c0.8,0,1.4,0.6,1.4,1.4l0,0
			c0,0.4-0.2,0.8-0.4,1l0,0c0.1,0,0.1,0,0.1,0l0,0c0.2,0.8,0.5,1.2,1.4,1.9l0,0c-0.3,0.2-0.5,0.4-0.8,0.5l0,0
			c-0.3-0.4-0.5-0.8-0.7-1.3l0,0c0,0.6,0.1,1.1,0.2,1.6l0,0c-0.8,0.3-1.6,0.3-2.4,0l0,0c0-0.3,0-0.6,0-1l0,0
			c-0.1,0.3-0.2,0.5-0.4,0.8l0,0c-0.2-0.1-0.3-0.2-0.5-0.3l0,0c0.4-0.5,0.9-1.2,1.2-2.1l0,0c0.3,0.2,0.6,0.3,0.8,0.3l0,0
			c0.1,0,0.2,0,0.3-0.1l0,0c-0.1,0-0.1,0-0.2,0l0,0C38.7,30.3,37.8,29.7,37.8,28.9z M25.5,32.4c2.6-1.4,5.2-2.7,7.8-4l0,0
			c0,0.8,0.2,1.6,0.4,2.4l0,0c0.3,1-0.1,2-0.7,2.8l0,0c-3.7,4.6-14.7,4.5-18.6,0l0,0c-0.7-0.8-1-1.8-0.7-2.8l0,0
			c0.2-0.6,0.3-1.2,0.3-1.8l0,0c0.7,0.3,1.3,0.7,2,1l0,0c0.4,0.2,1.1,0.2,1.5,0l0,0h0l2.2,1.1l2.3,1.2c0.5,0.3,1.2,0.4,1.8,0.5l0,0
			c0.1,0,0.2,0,0.2,0l0,0C24.4,32.7,24.9,32.6,25.5,32.4z M19.9,22.1c0,0.3,0.5,0.6,1,0.6l0,0c0.5,0,1-0.3,1-0.6l0,0
			c0-0.3-0.5-0.6-1-0.6l0,0C20.3,21.5,19.9,21.8,19.9,22.1L19.9,22.1z"/>
		<path class="st1" d="M83.6,11.1H59.7l-0.4,10.1h0.8c2.1-6.3,3.4-9.3,7.1-9.3h0.5v26.6h-3.4v0.8h14.8v-0.8h-3.4V11.9h0.5
			c3.7,0,4.9,2.7,7.1,9.3H84L83.6,11.1z M83.7,29.8c0,5.9,3.3,10,10.4,10c5.7,0,7.9-2.7,8.8-6.2l-0.7-0.1c-0.9,3.1-2.9,5-5.9,5
			c-3.9,0-4.8-3.3-4.8-8v-1.6h11.4c0.3-6-2.5-9.2-8.8-9.2C88.4,19.7,83.7,22.8,83.7,29.8z M91.5,28.1v-2c0-4.3,0.8-5.7,2.2-5.7
			c1.6,0,2,1.4,2,5.7v2H91.5z M114,29.9c-5.8,0-9.3,0.9-9.3,5c0,4.1,3.2,4.9,6,4.9s4-1.1,4.6-3c0.5,2,2.3,3,5.6,3
			c3.5,0,5-1.4,5.2-6.2l-0.6,0c-0.2,3.4-0.9,4.2-1.6,4.2c-0.7,0-1.2-0.4-1.2-2.1v-8.2c0-5.9-2.2-7.6-8.5-7.6c-5.5,0-8.4,1.6-8.4,5
			c0,2,1,3.3,3.5,3.3c2,0,3.5-1.3,3.5-3.2c0-0.8-0.1-1.3-0.3-1.8h-1c-0.2-0.5-0.3-0.8-0.3-1.2c0-1.3,1.2-1.6,1.9-1.6
			c1.6,0,2.1,1.4,2.1,6.5v3.1L114,29.9L114,29.9z M113.5,38.1c-0.8,0-1.1-0.4-1.1-3.3v-0.6c0-2.5,0.8-3.7,2.5-3.7h0.3v3.8
			C115.2,36.9,114.3,38.1,113.5,38.1z M137.9,20.4c1.1,0,1.9,0.5,1.9,1.9c0,0.4-0.1,0.9-0.3,1.5h-1.4c-0.2,0.5-0.2,1.1-0.2,1.4
			c0,2.3,1.5,3.4,3.6,3.4c2,0,3.3-1.3,3.3-3.8c0-3-2.5-5.2-7.4-5.2c-6.7,0-10.8,3.5-10.8,10.3c0,6.3,3.5,9.8,9.7,9.8
			c6.8,0,8.1-4.1,8.6-6.6l-0.7-0.1c-0.4,2.2-2,5.3-5.7,5.3c-3.2,0-4.1-2.3-4.1-7.5v-2.1C134.6,22.8,135.5,20.4,137.9,20.4z M145.7,9
			v0.7h2.2v28.9h-2.2v0.7h11.5v-0.7h-1.7V27.4c0-3.3,1.6-5.8,3.3-5.8c1,0,1.5,0.4,1.5,3.8v13.1h-1.6v0.7H170v-0.7h-2.3V26.4
			c0-4.9-2.5-6.8-6.3-6.8c-4,0-5.3,2.1-6,4.1V9H145.7z"/>
		<path class="st2" d="M199.6,11.1l-4.9,20.8l-5.4-20.8h-10.9v0.8h2.2v26.8h-2.2v0.8h5.5v-0.8h-2.2V13.2h0.2l7.1,26.2h5.1l6-26.1
			h0.2v25.3H198v0.8h12.3v-0.8h-2.2V11.8h2.2v-0.8C210.4,11.1,199.6,11.1,199.6,11.1z M212.1,29.8c0,5.9,3.3,10,10.4,10
			c5.7,0,7.9-2.7,8.8-6.2l-0.7-0.1c-0.9,3.1-2.9,5-5.9,5c-3.9,0-4.8-3.3-4.8-8v-1.6h11.4c0.3-6-2.5-9.2-8.8-9.2
			C216.9,19.7,212.1,22.8,212.1,29.8z M219.9,28.1v-2c0-4.3,0.8-5.7,2.2-5.7c1.6,0,2,1.4,2,5.7v2H219.9z"/>
	</g>
</g>
</svg>
